<svg width="54" height="54" viewBox="0 0 54 54" fill="none" xmlns="http://www.w3.org/2000/svg">
<g clip-path="url(#clip0_139_84)">
<path d="M40.0244 15.2922V38.4797C40.0244 39.3583 39.6754 40.2008 39.0542 40.822C38.433 41.4432 37.5904 41.7922 36.7119 41.7922H6.89941C6.02088 41.7922 5.17834 41.4432 4.55712 40.822C3.93591 40.2008 3.58691 39.3583 3.58691 38.4797V15.2922C3.58691 14.4137 3.93591 13.5712 4.55712 12.9499C5.17834 12.3287 6.02088 11.9797 6.89941 11.9797H36.7119C37.5904 11.9797 38.433 12.3287 39.0542 12.9499C39.6754 13.5712 40.0244 14.4137 40.0244 15.2922ZM52.0322 15.344C51.7986 15.2868 51.5555 15.2798 51.3189 15.3233C51.0823 15.3668 50.8576 15.46 50.6596 15.5966L43.7054 20.232C43.592 20.3077 43.499 20.4102 43.4347 20.5305C43.3704 20.6508 43.3368 20.785 43.3369 20.9214V32.8506C43.3368 32.9869 43.3704 33.1212 43.4347 33.2415C43.499 33.3618 43.592 33.4643 43.7054 33.54L50.6989 38.2023C50.9607 38.3769 51.2668 38.4734 51.5814 38.4803C51.896 38.4873 52.206 38.4045 52.4753 38.2417C52.7244 38.0833 52.9287 37.8637 53.0686 37.6037C53.2085 37.3438 53.2794 37.0524 53.2744 36.7572V16.9485C53.2746 16.5812 53.1527 16.2242 52.9278 15.9337C52.7029 15.6433 52.3879 15.4358 52.0322 15.344Z" fill="#DC4011"/>
</g>
<defs>
<clipPath id="clip0_139_84">
<rect width="53" height="53" fill="white" transform="translate(0.274414 0.385986)"/>
</clipPath>
</defs>
</svg>
