<svg width="49" height="50" viewBox="0 0 49 50" fill="none" xmlns="http://www.w3.org/2000/svg">
<path fill-rule="evenodd" clip-rule="evenodd" d="M14.5455 1.02582C17.1323 0.909242 17.9588 0.881104 24.545 0.881104C31.1312 0.881104 31.9578 0.909242 34.5446 1.02582C38.4854 1.2047 41.9472 2.16544 44.726 4.92906C47.5048 7.69269 48.4708 11.1357 48.6506 15.055C48.7679 17.6277 48.7961 18.4497 48.7961 25C48.7961 31.5503 48.7679 32.3724 48.6506 34.945C48.4708 38.8644 47.5048 42.3073 44.726 45.071C41.9472 47.8346 38.4854 48.7953 34.5446 48.9742C31.9578 49.0908 31.1312 49.1189 24.545 49.1189C17.9588 49.1189 17.1323 49.0908 14.5455 48.9742C10.6047 48.7953 7.14286 47.8346 4.36409 45.071C1.58532 42.3073 0.619314 38.8644 0.439452 34.945C0.322238 32.3724 0.293945 31.5503 0.293945 25C0.293945 18.4497 0.322238 17.6277 0.439452 15.055C0.619314 11.1357 1.58532 7.69269 4.36409 4.92906C7.14286 2.16544 10.6047 1.2047 14.5455 1.02582ZM34.3424 5.36762C31.7859 5.25104 31.0179 5.22692 24.5429 5.22692C18.0679 5.22692 17.2999 5.25104 14.7434 5.36762C11.9828 5.49223 9.42234 6.04295 7.45193 8.00261C5.48153 9.96227 4.9278 12.5088 4.8025 15.2544C4.68529 17.7969 4.66104 18.5607 4.66104 25.0004C4.66104 31.4402 4.68529 32.2039 4.8025 34.7465C4.9278 37.492 5.48153 40.0386 7.45193 41.9982C9.42234 43.9579 11.9828 44.5086 14.7434 44.6332C17.2999 44.7498 18.0679 44.7739 24.5429 44.7739C31.0179 44.7739 31.7859 44.7498 34.3424 44.6332C37.1029 44.5086 39.6635 43.9579 41.6339 41.9982C43.6043 40.0386 44.158 37.492 44.2833 34.7465C44.4005 32.2039 44.4248 31.4402 44.4248 25.0004C44.4248 18.5607 44.4005 17.7969 44.2833 15.2544C44.158 12.5088 43.6043 9.96227 41.6339 8.00261C39.6635 6.04295 37.1029 5.49223 34.3424 5.36762ZM12.0879 24.9986C12.0879 18.1589 17.6637 12.6136 24.5409 12.6136C31.4181 12.6136 36.9938 18.1589 36.9938 24.9986C36.9938 31.8383 31.4181 37.3837 24.5409 37.3837C17.6637 37.3837 12.0879 31.8383 12.0879 24.9986ZM16.4551 24.999C16.4551 29.4389 20.0745 33.0386 24.5388 33.0386C29.003 33.0386 32.6224 29.4389 32.6224 24.999C32.6224 20.5591 29.003 16.9594 24.5388 16.9594C20.0745 16.9594 16.4551 20.5591 16.4551 24.999ZM40.3973 12.1259C40.3973 13.7244 39.0944 15.0202 37.4872 15.0202C35.8799 15.0202 34.577 13.7244 34.577 12.1259C34.577 10.5275 35.8799 9.23167 37.4872 9.23167C39.0944 9.23167 40.3973 10.5275 40.3973 12.1259Z" fill="url(#paint0_linear_139_119)"/>
<defs>
<linearGradient id="paint0_linear_139_119" x1="1.16454" y1="12.9358" x2="45.2394" y2="41.3792" gradientUnits="userSpaceOnUse">
<stop stop-color="#E9571E"/>
<stop offset="0.44" stop-color="#EF791D"/>
<stop offset="0.61" stop-color="#EF7D20"/>
<stop offset="0.78" stop-color="#F18929"/>
<stop offset="0.95" stop-color="#F49E39"/>
<stop offset="1" stop-color="#F6A53F"/>
</linearGradient>
</defs>
</svg>
