<svg width="54" height="54" viewBox="0 0 54 54" fill="none" xmlns="http://www.w3.org/2000/svg">
<g clip-path="url(#clip0_139_90)">
<path d="M48.3057 7.51099C48.3057 7.07172 48.1312 6.65045 47.8206 6.33984C47.51 6.02923 47.0887 5.85474 46.6494 5.85474C37.5235 5.85474 28.1595 16.1463 22.9589 22.9617C21.1015 22.3929 19.1367 22.2676 17.2221 22.5959C15.3075 22.9241 13.4967 23.6968 11.9349 24.8519C10.3731 26.007 9.10402 27.5122 8.2295 29.2467C7.35499 30.9812 6.89943 32.8966 6.89944 34.8391C6.89944 41.2322 2.85405 44.0996 2.66151 44.2321C2.36771 44.4305 2.14532 44.7179 2.02704 45.0521C1.90875 45.3863 1.90082 45.7497 2.00441 46.0887C2.108 46.4277 2.31764 46.7246 2.60251 46.9356C2.88737 47.1466 3.23243 47.2607 3.58694 47.261H19.3213C21.2638 47.261 23.1792 46.8054 24.9137 45.9309C26.6482 45.0564 28.1535 43.7873 29.3085 42.2255C30.4636 40.6638 31.2363 38.8529 31.5646 36.9383C31.8928 35.0238 31.7675 33.0589 31.1987 31.2016C38.0162 26.0009 48.3057 16.6369 48.3057 7.51099ZM26.0333 24.3944C26.7427 23.4752 27.439 22.6091 28.1222 21.7961C29.7945 22.9259 31.2345 24.366 32.3643 26.0382C31.55 26.72 30.6839 27.4164 29.766 28.1272C28.8009 26.632 27.5284 25.3595 26.0333 24.3944ZM34.8735 23.8395C33.6231 22.0752 32.0831 20.5352 30.3188 19.2849C36.8983 12.1361 41.8608 9.96845 44.7903 9.36599C44.2003 12.2975 42.0223 17.2601 34.8735 23.8395Z" fill="#DC4011"/>
</g>
<defs>
<clipPath id="clip0_139_90">
<rect width="53" height="53" fill="white" transform="translate(0.274414 0.885986)"/>
</clipPath>
</defs>
</svg>
