<svg width="40" height="39" viewBox="0 0 40 39" fill="none" xmlns="http://www.w3.org/2000/svg">
<path d="M34.4001 19.2C34.4001 19.5183 34.2737 19.8235 34.0486 20.0486C33.8236 20.2736 33.5184 20.4 33.2001 20.4H21.2001V32.4C21.2001 32.7183 21.0737 33.0235 20.8486 33.2486C20.6236 33.4736 20.3184 33.6 20.0001 33.6C19.6818 33.6 19.3766 33.4736 19.1516 33.2486C18.9265 33.0235 18.8001 32.7183 18.8001 32.4V20.4H6.8001C6.48184 20.4 6.17661 20.2736 5.95157 20.0486C5.72653 19.8235 5.6001 19.5183 5.6001 19.2C5.6001 18.8818 5.72653 18.5766 5.95157 18.3515C6.17661 18.1265 6.48184 18 6.8001 18H18.8001V6.00005C18.8001 5.68179 18.9265 5.37656 19.1516 5.15152C19.3766 4.92648 19.6818 4.80005 20.0001 4.80005C20.3184 4.80005 20.6236 4.92648 20.8486 5.15152C21.0737 5.37656 21.2001 5.68179 21.2001 6.00005V18H33.2001C33.5184 18 33.8236 18.1265 34.0486 18.3515C34.2737 18.5766 34.4001 18.8818 34.4001 19.2Z" fill="#65635F"/>
</svg>
