<svg width="278" height="281" viewBox="0 0 278 281" fill="none" xmlns="http://www.w3.org/2000/svg">
<path d="M277.87 80.0909V201.104C277.87 208.125 273.688 214.616 266.889 218.122L151.698 277.562C144.978 281.027 136.703 281.057 129.948 277.632L99.8564 262.366C95.5064 260.162 92.8114 256.026 92.8114 251.538V221.277C92.8114 217.561 97.2844 215.237 100.885 217.06L129.412 231.535C136.166 234.96 144.43 234.93 151.162 231.464L221.041 195.404C227.829 191.898 232.022 185.407 232.022 178.385V104.882C232.022 97.8606 227.84 91.3798 221.052 87.8739L150.177 51.2525C143.401 47.7467 135.048 47.7467 128.271 51.2525L57.3853 87.8739C50.5976 91.3798 46.4153 97.8706 46.4153 104.882V274.847C46.4153 278.563 41.9424 280.887 38.3416 279.064L7.63455 263.478C3.28457 261.264 0.5896 257.137 0.5896 252.65V80.0909C0.5896 73.0691 4.77184 66.5882 11.5596 63.0824L128.282 2.78135C135.059 -0.724521 143.412 -0.724521 150.189 2.78135L266.9 63.0824C273.688 66.5882 277.87 73.0791 277.87 80.0909Z" fill="url(#paint0_linear_139_78)"/>
<path d="M185.637 123.994V159.544C185.637 163.42 183.322 167.006 179.565 168.95L145.761 186.399C142.048 188.322 137.474 188.332 133.739 186.439L98.9619 168.789C95.1598 166.866 92.8115 163.25 92.8115 159.344V123.994C92.8115 120.118 95.1263 116.532 98.8836 114.589L133.18 96.879C136.926 94.9457 141.545 94.9457 145.291 96.879L179.576 114.589C183.334 116.532 185.637 120.108 185.637 123.994Z" fill="url(#paint1_linear_139_78)"/>
<defs>
<linearGradient id="paint0_linear_139_78" x1="5.56669" y1="70.1317" x2="259.793" y2="231.699" gradientUnits="userSpaceOnUse">
<stop stop-color="#E9571E"/>
<stop offset="0.44" stop-color="#EF791D"/>
<stop offset="0.61" stop-color="#EF7D20"/>
<stop offset="0.78" stop-color="#F18929"/>
<stop offset="0.95" stop-color="#F49E39"/>
<stop offset="1" stop-color="#F6A53F"/>
</linearGradient>
<linearGradient id="paint1_linear_139_78" x1="94.4777" y1="118.525" x2="178.885" y2="172.937" gradientUnits="userSpaceOnUse">
<stop stop-color="#E9571E"/>
<stop offset="0.44" stop-color="#EF791D"/>
<stop offset="0.61" stop-color="#EF7D20"/>
<stop offset="0.78" stop-color="#F18929"/>
<stop offset="0.95" stop-color="#F49E39"/>
<stop offset="1" stop-color="#F6A53F"/>
</linearGradient>
</defs>
</svg>
