<svg width="138" height="37" viewBox="0 0 138 37" fill="none" xmlns="http://www.w3.org/2000/svg">
<path d="M10.5991 36.6905C8.625 36.6905 6.8859 36.2778 5.38181 35.4524C4.17541 34.8016 3.05518 33.7619 2.02112 32.3333C1.23774 31.254 0.634537 30.0952 0.211512 28.8571C0.0705041 28.4286 0 28.0635 0 27.7619C0 27.3016 0.219346 26.9841 0.658038 26.8095C0.955722 26.6825 1.1829 26.619 1.33958 26.619C1.91928 26.619 2.47548 27.0556 3.00817 27.9286C3.90123 29.373 4.64544 30.4048 5.2408 31.0238C5.85184 31.627 6.3532 32.0794 6.74489 32.381C7.82595 33.2063 8.83651 33.619 9.77657 33.619C11.1553 33.619 12.3225 33.0635 13.2783 31.9524C14.234 30.8254 14.7119 29.4286 14.7119 27.7619C14.7119 25.1587 13.4741 22.8571 10.9986 20.8571C9.90191 19.9841 8.67984 19.127 7.33243 18.2857C5.48365 17.127 3.93256 15.6111 2.67916 13.7381C1.81744 12.4524 1.38658 10.9365 1.38658 9.19048C1.38658 7.2381 2.35014 5.22222 4.27725 3.14286C6.22003 1.04762 8.47616 0 11.0456 0C12.205 0 13.2626 0.222222 14.2183 0.666667C15.174 1.09524 15.9418 1.74603 16.5215 2.61905C17.1168 3.47619 17.4145 4.51587 17.4145 5.7381C17.4145 6.38889 17.3127 6.92857 17.109 7.35714C16.921 7.76984 16.6703 7.97619 16.3569 7.97619C15.8556 7.97619 15.3699 7.24603 14.8999 5.78571C14.6178 4.9127 14.1635 4.27778 13.5368 3.88095C12.9101 3.48413 12.2285 3.28571 11.4922 3.28571C10.2544 3.30159 9.08719 3.93651 7.99046 5.19048C6.89373 6.44444 6.34537 7.69048 6.34537 8.92857C6.34537 10.5794 7.02691 12 8.38999 13.1905C9.67473 14.3175 10.9438 15.2698 12.1972 16.0476C13.7483 17 15.1192 18.0238 16.3099 19.119C18.8638 21.4841 20.1407 24.3413 20.1407 27.6905C20.1407 29.3095 19.6628 30.8016 18.7071 32.1667C17.767 33.5159 16.5763 34.6032 15.1349 35.4286C13.6935 36.2698 12.1815 36.6905 10.5991 36.6905Z" fill="#ECB176"/>
<path d="M38.7067 36.4762C37.1087 36.4762 36.2626 35.2222 36.1686 32.7143L36.0276 29.3333C34.2258 33.6349 31.7425 35.7857 28.5777 35.7857C26.5095 35.7857 24.9819 34.6984 23.9949 32.5238C23.0078 30.3492 22.5143 26.9206 22.5143 22.2381C22.5143 19.2381 22.7807 16.7381 23.3134 14.7381C23.8617 12.7222 24.6764 11.7143 25.7575 11.7143C26.8699 11.7143 27.4261 12.6349 27.4261 14.4762C27.4261 14.9841 27.3556 15.9841 27.2146 17.4762C27.0736 18.9683 27.0031 20.5397 27.0031 22.1905C27.0031 24.6349 27.1989 26.9127 27.5906 29.0238C27.9823 31.1349 28.6952 32.1905 29.7292 32.1905C30.5909 32.1905 31.5153 31.5397 32.5024 30.2381C34.1005 28.127 35.4949 23.2698 36.6856 15.6667C37.234 12.1746 38.0722 10.4286 39.2003 10.4286C39.733 10.4286 40.1482 10.7619 40.4458 11.4286C40.6965 11.9683 40.8219 12.7302 40.8219 13.7143L40.7984 14.4524C40.6417 17.4524 40.5634 19.9365 40.5634 21.9048C40.5634 24.8254 40.7357 28.2778 41.0804 32.2619C41.1117 32.5952 41.1274 32.9048 41.1274 33.1905C41.1274 35.381 40.3205 36.4762 38.7067 36.4762Z" fill="#ECB176"/>
<path d="M51.797 36.3571C49.7602 36.3571 48.1778 35.127 47.0497 32.6667C45.6396 29.6032 44.9346 24.9921 44.9346 18.8333V17.9286C45.1383 9.75397 45.5535 4.46032 46.1802 2.04762C46.3525 1.33333 46.611 0.81746 46.9557 0.5C47.3004 0.166667 47.7704 0 48.3658 0C48.9768 0.015873 49.5095 0.253968 49.9639 0.714286C50.2929 1.06349 50.4574 1.63492 50.4574 2.42857C50.4574 2.69841 50.4496 2.98413 50.4339 3.28571C49.8856 9.14286 49.6114 14.3175 49.6114 18.8095C49.6114 26.6508 50.7473 31.2698 53.0191 32.6667C53.5831 33.0159 54.0296 33.2302 54.3587 33.3095C54.6877 33.3889 54.9305 33.4603 55.0872 33.5238C55.3379 33.6508 55.4632 33.8571 55.4632 34.1429C55.4632 34.3651 55.3457 34.6429 55.1107 34.9762C54.8757 35.2937 54.4605 35.6032 53.8651 35.9048C53.2854 36.2063 52.5961 36.3571 51.797 36.3571Z" fill="black"/>
<path d="M63.7122 37C61.8008 37 60.3045 35.8889 59.2234 33.6667C57.7507 30.7143 57.0143 26.1587 57.0143 20C57.0143 17.3651 57.2023 13.754 57.5783 9.16667C56.1056 9.35714 55.2909 9.45238 55.1342 9.45238C54.1785 9.45238 53.7006 9.06349 53.7006 8.28571C53.7006 7.39683 54.2803 6.83333 55.4397 6.59524C56.1761 6.46825 56.9595 6.34921 57.7899 6.2381C58.1502 4.14286 58.5576 2.73016 59.0119 2C59.4819 1.25397 60.0381 0.880952 60.6805 0.880952C61.2446 0.880952 61.7146 1.11905 62.0906 1.59524C62.4666 2.05556 62.6546 2.73016 62.6546 3.61905C62.6546 4.19048 62.6155 4.87302 62.5371 5.66667C63.9472 5.52381 64.7541 5.45238 64.9578 5.45238C65.5218 5.45238 65.9997 5.55556 66.3913 5.7619C66.7987 5.95238 67.0024 6.24603 67.0024 6.64286C67.0024 6.97619 66.8065 7.30159 66.4148 7.61905C66.0232 7.93651 65.4278 8.14286 64.6287 8.2381C63.8454 8.33333 63.0698 8.43651 62.3021 8.54762C62.0044 12.8333 61.8556 16.5397 61.8556 19.6667C61.8556 28.0794 63.015 32.7143 65.3338 33.5714C65.8978 33.7778 66.36 33.881 66.7204 33.881H66.9789C67.2139 33.881 67.3941 33.8968 67.5194 33.9286C67.7701 33.9762 67.8954 34.1508 67.8954 34.4524C67.8954 35.0873 67.3471 35.7222 66.2503 36.3571C65.514 36.7857 64.6679 37 63.7122 37Z" fill="black"/>
<path d="M76.2619 36.5714C74.1311 36.5714 72.4155 36.0476 71.1151 35C69.8304 33.9524 68.8982 32.5873 68.3185 30.9048C67.7544 29.2222 67.4724 27.4444 67.4724 25.5714C67.4724 23.2381 67.8484 21.1984 68.6005 19.4524C69.3525 17.7064 70.3317 16.246 71.5381 15.0714C72.7602 13.8968 74.0998 12.9921 75.5569 12.3571C77.0296 11.7063 78.2125 11.3413 79.1056 11.2619C80.0143 11.1825 80.641 11.1429 80.9857 11.1429C83.6335 11.1429 85.6155 11.873 86.9315 13.3333C87.6679 14.1587 88.0439 15.2063 88.0596 16.4762C88.1223 21.0476 88.279 24.6825 88.5296 27.381C88.796 30.0635 88.9292 32.1587 88.9292 33.6667C88.9292 35.5397 88.3103 36.4762 87.0725 36.4762C85.2551 36.4762 84.2054 34.3175 83.9234 30C82.2469 34.381 79.6931 36.5714 76.2619 36.5714ZM76.2854 33.6667C78.1969 33.6667 79.8811 32.2063 81.3382 29.2857C82.7953 26.3651 83.5238 23.3254 83.5238 20.1667V16.5476C83.5238 15.7857 83.2497 15.2222 82.7013 14.8571C82.1686 14.4762 81.5027 14.2857 80.7037 14.2857C78.6826 14.2857 77.0531 14.9127 75.8154 16.1667C73.7003 18.2619 72.6427 21.3095 72.6427 25.3095C72.6427 27.6905 73.0109 29.7302 73.7473 31.4286C74.421 32.9206 75.267 33.6667 76.2854 33.6667Z" fill="black"/>
<path d="M95.298 36.5238C94.687 36.5238 94.1543 36.1905 93.6999 35.5238C93.2456 34.873 92.9557 33.9841 92.8304 32.8571C92.611 30.5397 92.5014 27.8254 92.5014 24.7143C92.5014 21.6032 92.7912 18.4921 93.3709 15.381C93.8723 12.6032 94.7497 11.2143 96.0031 11.2143C96.8805 11.2143 97.3191 12.3413 97.3191 14.5952C97.3191 15.0873 97.2956 15.6429 97.2486 16.2619C97.1703 17.4206 97.1311 18.6111 97.1311 19.8333C97.1311 21.0397 97.1703 22.2857 97.2486 23.5714C97.4837 22.746 97.7892 21.754 98.1652 20.5952C98.5412 19.4365 98.9877 18.2381 99.5048 17C100.037 15.7619 100.641 14.6111 101.314 13.5476C102.004 12.4683 102.803 11.5952 103.712 10.9286C104.636 10.246 105.592 9.90476 106.579 9.90476C111.295 9.90476 113.676 16.9524 113.723 31.0476C113.707 32.6032 113.465 33.7937 112.995 34.619C112.54 35.4444 112 35.8571 111.373 35.8571C110.793 35.8571 110.268 35.4762 109.798 34.7143C109.328 33.9524 109.038 32.7698 108.929 31.1667C108.709 25.9762 108.302 21.7857 107.707 18.5952C107.111 15.3889 106.406 13.7619 105.592 13.7143C104.072 13.746 102.505 16.3571 100.891 21.5476C99.7633 25.119 98.7997 28.8413 98.0007 32.7143C97.7187 34.0635 97.327 35.0317 96.8256 35.619C96.3399 36.2222 95.8307 36.5238 95.298 36.5238Z" fill="black"/>
<path d="M125.333 36.5714C123.202 36.5714 121.486 36.0476 120.186 35C118.901 33.9524 117.969 32.5873 117.389 30.9048C116.825 29.2222 116.543 27.4444 116.543 25.5714C116.543 23.2381 116.919 21.1984 117.671 19.4524C118.423 17.7064 119.403 16.246 120.609 15.0714C121.831 13.8968 123.171 12.9921 124.628 12.3571C126.1 11.7063 127.283 11.3413 128.176 11.2619C129.085 11.1825 129.712 11.1429 130.057 11.1429C132.704 11.1429 134.686 11.873 136.002 13.3333C136.739 14.1587 137.115 15.2063 137.13 16.4762C137.193 21.0476 137.35 24.6825 137.6 27.381C137.867 30.0635 138 32.1587 138 33.6667C138 35.5397 137.381 36.4762 136.143 36.4762C134.326 36.4762 133.276 34.3175 132.994 30C131.318 34.381 128.764 36.5714 125.333 36.5714ZM125.356 33.6667C127.268 33.6667 128.952 32.2063 130.409 29.2857C131.866 26.3651 132.595 23.3254 132.595 20.1667V16.5476C132.595 15.7857 132.321 15.2222 131.772 14.8571C131.239 14.4762 130.574 14.2857 129.775 14.2857C127.753 14.2857 126.124 14.9127 124.886 16.1667C122.771 18.2619 121.714 21.3095 121.714 25.3095C121.714 27.6905 122.082 29.7302 122.818 31.4286C123.492 32.9206 124.338 33.6667 125.356 33.6667Z" fill="black"/>
</svg>
