<svg width="48" height="38" viewBox="0 0 48 38" fill="none" xmlns="http://www.w3.org/2000/svg">
<path d="M42.5276 9.56186L42.5566 10.7904C42.5566 23.3358 32.9604 37.7892 15.4099 37.7892C10.0232 37.7892 5.00945 36.2186 0.7854 33.5254C1.53148 33.6121 2.2919 33.6603 3.06219 33.6603C7.5334 33.6603 11.6461 32.1426 14.911 29.5989C10.7354 29.5218 7.21358 26.7757 5.99774 23.0082C6.58383 23.119 7.17486 23.1721 7.79489 23.1721C8.66685 23.1721 9.50966 23.0613 10.309 22.8445C5.94436 21.9676 2.65521 18.1376 2.65521 13.5415V13.421C3.94372 14.1341 5.41149 14.558 6.97615 14.6111C4.41842 12.9104 2.73266 10.0053 2.73266 6.71474C2.73266 4.97556 3.20258 3.34717 4.02116 1.94524C8.72486 7.68798 15.7586 11.4651 23.6885 11.8602C23.5237 11.1663 23.4415 10.4389 23.4415 9.69705C23.4415 4.46018 27.714 0.210815 32.9845 0.210815C35.7262 0.210815 38.2065 1.36218 39.9503 3.20739C42.1205 2.77853 44.1648 1.9885 46.0104 0.904489C45.2982 3.1207 43.787 4.98032 41.8153 6.15578C43.7385 5.92931 45.5841 5.41377 47.2941 4.66225C46.0153 6.56038 44.3925 8.2322 42.5276 9.56186Z" fill="url(#paint0_linear_139_117)"/>
<defs>
<linearGradient id="paint0_linear_139_117" x1="1.62022" y1="9.60171" x2="38.3245" y2="38.7579" gradientUnits="userSpaceOnUse">
<stop stop-color="#E9571E"/>
<stop offset="0.44" stop-color="#EF791D"/>
<stop offset="0.61" stop-color="#EF7D20"/>
<stop offset="0.78" stop-color="#F18929"/>
<stop offset="0.95" stop-color="#F49E39"/>
<stop offset="1" stop-color="#F6A53F"/>
</linearGradient>
</defs>
</svg>
